<?xml version="1.0" encoding="UTF-8" standalone="no"?>
<svg
   version="1.1"
   id="Layer_1"
   x="0px"
   y="0px"
   width="889"
   viewBox="0 0 889 885"
   enable-background="new 0 0 873 868"
   xml:space="preserve"
   sodipodi:docname="monologo.svg"
   inkscape:version="1.1.2 (b8e25be833, 2022-02-05)"
   height="885"
   xmlns:inkscape="http://www.inkscape.org/namespaces/inkscape"
   xmlns:sodipodi="http://sodipodi.sourceforge.net/DTD/sodipodi-0.dtd"
   xmlns="http://www.w3.org/2000/svg"
   xmlns:svg="http://www.w3.org/2000/svg"><defs
   id="defs1917" /><sodipodi:namedview
   id="namedview1915"
   pagecolor="#ffffff"
   bordercolor="#666666"
   borderopacity="1.0"
   inkscape:pageshadow="2"
   inkscape:pageopacity="0.0"
   inkscape:pagecheckerboard="0"
   showgrid="false"
   inkscape:zoom="0.71117998"
   inkscape:cx="498.46735"
   inkscape:cy="563.85165"
   inkscape:window-width="1920"
   inkscape:window-height="1027"
   inkscape:window-x="742"
   inkscape:window-y="1432"
   inkscape:window-maximized="1"
   inkscape:current-layer="Layer_1"
   units="mm"
   width="874px" />
<path
   fill="#98C900"
   opacity="1"
   stroke="none"
   d="m 482.40711,877.56333 c -24.37823,0 -48.75649,0 -73.4153,-0.40571 -0.96121,-0.79164 -1.60937,-1.43448 -2.32734,-1.52489 -11.06195,-1.39336 -22.26913,-2.03352 -33.17162,-4.20498 -18.67659,-3.71973 -37.40848,-7.54487 -55.67895,-12.83482 -35.94825,-10.40852 -69.55597,-26.21919 -101.45676,-45.85165 -26.25552,-16.15816 -50.43475,-34.89844 -72.63291,-56.15579 -9.91072,-9.49065 -19.31245,-19.60481 -28.12474,-30.1215 C 105.20585,714.06007 95.321384,701.18481 85.893954,688.02958 69.377331,664.98201 55.668683,640.2261 45.215604,613.91131 37.601516,594.74349 31.020647,575.10536 25.112344,555.33918 18.511021,533.2545 14.552612,510.54914 12.845356,487.50291 c -0.04681,-0.63189 -1.242614,-1.17895 -1.902629,-1.76558 -10e-7,-28.00846 -10e-7,-56.0169 0.39988,-84.29697 0.799225,-1.28224 1.439806,-2.26547 1.55869,-3.30801 0.761903,-6.68151 0.914995,-13.47189 2.193383,-20.0471 3.011534,-15.48939 6.156953,-30.9733 9.950948,-46.28581 5.919879,-23.89249 14.109349,-47.0798 24.790459,-69.25804 7.221893,-14.9955 15.064655,-29.7372 23.425945,-44.1312 14.100807,-24.27469 31.060208,-46.60501 50.141638,-67.13504 17.78669,-19.13697 36.6715,-37.22071 57.70493,-52.937816 18.60611,-13.903318 37.8035,-26.866598 58.50057,-37.444207 12.80598,-6.54473 25.58397,-13.383895 38.99618,-18.449795 20.06863,-7.58011 40.38011,-14.930755 61.15461,-20.117391 19.89661,-4.967474 40.51836,-7.033716 60.80549,-10.468889 0.6762,-0.114498 1.17911,-1.249244 1.76278,-1.9084245 28.04853,-5e-6 56.09703,-5e-6 84.42251,0.4027305 0.95709,0.790599 1.59908,1.415257 2.32297,1.531603 16.78252,2.697093 33.65271,4.923215 50.34702,8.079186 33.04866,6.247678 64.4045,17.775801 94.63985,32.25388 21.10666,10.10684 41.18888,22.017837 60.37061,35.537879 19.54941,13.779214 37.94326,28.851274 55.03804,45.516204 6.28848,6.1304 12.27148,12.58971 18.15374,19.11483 6.72477,7.45967 13.83541,14.69776 19.61815,22.85254 11.69535,16.49267 23.03373,33.27392 33.7369,50.42309 14.13544,22.64872 24.91596,46.98611 33.82781,72.12665 10.21508,28.81713 17.89165,58.25917 21.01356,88.74782 1.48939,14.54454 3.24306,29.09902 3.80557,43.69016 0.49719,12.89628 -0.1151,25.87331 -0.92602,38.77157 -0.90647,14.41853 -1.85217,28.90425 -4.10029,43.15315 -3.65466,23.16353 -9.16382,45.96012 -16.71544,68.22281 -10.0398,29.598 -22.76901,57.90123 -38.82365,84.80462 -14.73748,24.69607 -31.43318,47.94697 -50.80602,69.07107 -17.00204,18.53889 -35.12579,36.08078 -55.19457,51.46567 -20.79574,15.94239 -42.60452,30.33522 -65.80376,42.49511 -28.69972,15.04306 -58.7329,26.94189 -90.1579,34.91308 -15.4741,3.92508 -31.2896,6.57332 -47.02636,9.37475 -8.38346,1.49238 -16.93458,2.03333 -25.39054,3.15057 -0.82788,0.10945 -1.5188,1.2525 -2.2733,1.91572 m 15.59626,-198.84584 c 9.4097,-6.82955 19.38698,-13.01339 28.09271,-20.64384 12.26934,-10.75396 12.42361,-28.84261 1.41014,-40.16851 -10.87571,-11.18417 -27.96202,-10.87352 -40.09833,-0.35958 -6.7028,5.80687 -14.33569,11.00012 -22.35898,14.73613 -17.20997,8.01366 -35.91971,9.94243 -54.67305,10.14766 -46.3017,0.50679 -91.08416,-8.7726 -135.27475,-21.64969 -3.00109,-0.87455 -3.82924,-2.35955 -3.79619,-5.30472 0.10655,-9.49175 -0.0175,-18.9868 -0.11015,-28.48002 -0.60271,-61.77793 -1.18094,-123.55615 -1.92139,-185.33243 -0.0501,-4.18427 1.09162,-6.21437 5.28402,-7.25618 21.16937,-5.26054 42.10671,-11.58854 63.44454,-16.00458 32.25625,-6.67572 64.8811,-10.403 97.87368,-5.63672 18.80538,2.71672 36.10292,8.65104 50.55575,21.89671 4.00413,3.6697 10.12884,6.0481 15.60854,6.88934 12.18934,1.87133 23.19429,-4.73609 28.23717,-15.43873 5.21319,-11.06409 2.86476,-23.67778 -6.25214,-32.55525 -15.52151,-15.11395 -34.1689,-24.79514 -54.82356,-30.74279 -37.80585,-10.88639 -76.18032,-9.81347 -114.59807,-4.53359 -47.29546,6.5 -92.84731,19.58032 -137.1001,37.36649 -3.33835,1.34175 -4.50723,2.92985 -4.43749,6.4952 0.42974,21.97415 0.67792,43.95225 0.90281,65.92988 0.36974,36.13429 0.68227,72.26918 1.00685,108.40389 0.34253,38.13357 0.68378,76.26709 0.99557,114.40092 0.0689,8.43228 -0.003,8.47071 7.98103,11.41527 60.31728,22.24458 122.08567,37.23701 186.88127,36.27979 30.12901,-0.44505 59.39454,-5.40562 87.17012,-19.85465 M 365.03622,535.48093 c 7.92407,5.1971 15.4807,11.09609 23.84096,15.45993 25.34604,13.23021 52.89411,17.76067 81.13542,18.72844 43.71182,1.49799 86.44962,-5.26573 128.45071,-16.60865 23.59636,-6.37254 46.77264,-14.29645 69.75725,-21.40358 0.19862,-2.33771 0.34672,-3.32324 0.35699,-4.31016 0.29141,-28.13506 0.56537,-56.27036 0.85002,-84.40554 0.22238,-21.97673 0.47275,-43.9532 0.67998,-65.93005 0.45058,-47.7816 0.84269,-95.56382 1.39579,-143.3442 0.0432,-3.72842 -1.1054,-5.4959 -4.64355,-6.91861 -44.4033,-17.85487 -90.13817,-30.82548 -137.58548,-37.40529 -32.35565,-4.48696 -64.77776,-5.67659 -97.07858,0.55474 -27.36351,5.27886 -52.34551,15.59931 -72.43044,35.66223 -10.81525,10.80341 -11.0462,27.69877 -0.70196,38.75743 10.25274,10.96087 27.77836,12.21327 38.80131,1.89974 13.08005,-12.23832 28.70604,-18.38894 45.90477,-21.51735 22.03767,-4.00858 44.14282,-3.28321 66.26055,-0.86123 34.58735,3.78746 68.25498,11.77447 101.39626,22.17976 2.67372,0.83944 3.74331,2.25547 3.6122,5.03374 -0.23516,4.98496 -0.28556,9.98058 -0.32589,14.97244 -0.34823,43.12428 -0.66056,86.24887 -1.01821,129.3731 -0.19605,23.64239 -0.52799,47.28399 -0.61541,70.92659 -0.0128,3.47707 -1.18581,5.03531 -4.51251,5.8774 -10.17268,2.57509 -20.20398,5.73183 -30.41966,8.10794 -39.24521,9.12828 -78.78305,15.97234 -119.33153,12.38034 -23.6617,-2.09608 -45.76633,-7.9862 -63.66201,-25.31329 -10.43954,-10.10778 -27.31979,-8.90074 -37.63497,1.28429 -10.5088,10.37628 -11.29992,26.79763 -1.63885,38.03236 2.59251,3.01477 5.73239,5.56021 9.15684,8.78748 z"
   id="path1902"
   style="fill:none;fill-opacity:1;stroke:none;stroke-width:20;stroke-miterlimit:4;stroke-dasharray:none;stroke-opacity:1" />
<path
   fill="#000000"
   opacity="1"
   stroke="none"
   d="m 482.41142,877.94845 c 0.28506,-0.66351 0.97531,-1.80707 1.80237,-1.91657 8.44763,-1.11773 16.99032,-1.65893 25.36554,-3.15197 15.72125,-2.80268 31.52118,-5.45209 46.98004,-9.37891 31.39404,-7.97473 61.39764,-19.87884 90.06909,-34.92859 23.17639,-12.16528 44.96368,-26.56451 65.73895,-42.51397 20.04901,-15.39173 38.15491,-32.94141 55.1402,-51.48853 19.35376,-21.13348 36.03302,-44.39471 50.75598,-69.10175 16.03882,-26.91534 28.7555,-55.23114 38.7854,-84.84228 7.54419,-22.27258 13.04791,-45.07928 16.69898,-68.25311 2.24591,-14.25522 3.19067,-28.74738 4.09625,-43.17231 0.81012,-12.90399 1.42181,-25.88678 0.92511,-38.78878 -0.56195,-14.59763 -2.31391,-29.15857 -3.80182,-43.70957 -3.11884,-30.5022 -10.78784,-59.9573 -20.99286,-88.78723 -8.90308,-25.1517 -19.67297,-49.49991 -33.79449,-72.15868 -10.69263,-17.1568 -22.01984,-33.94549 -33.70368,-50.44548 -5.77704,-8.15841 -12.88067,-15.39972 -19.59881,-22.8627 C 761.0012,145.92001 755.02409,139.45783 748.7418,133.32471 731.66386,116.65238 713.28813,101.57362 693.75798,87.78829 674.59514,74.262243 654.5327,62.345957 633.44682,52.234629 603.24125,37.75012 571.9163,26.216877 538.90019,19.966425 c -16.67786,-3.157372 -33.53144,-5.384483 -50.29743,-8.082774 -0.72317,-0.116397 -1.36453,-0.741333 -1.85202,-1.532283 132.49057,-0.4029144 264.78922,-0.4029144 397.13987,-0.4029144 0,289.2226864 0,578.4453664 0,867.9999964 -133.63526,0 -267.32288,0 -401.47919,0 z"
   id="path1904"
   style="fill:#000000;fill-opacity:0" />
<path
   fill="#000000"
   opacity="1"
   stroke="none"
   d="m 10.942727,486.41711 c 0.659365,0.11822 1.853991,0.66553 1.900755,1.2977 1.705574,23.05645 5.660084,45.77191 12.254905,67.86639 5.902483,19.77497 12.476871,39.42182 20.083459,58.59815 10.442784,26.32647 24.137928,51.09338 40.638283,74.15118 9.418144,13.16107 19.292871,26.04205 29.676271,38.45148 8.80362,10.52136 18.19609,20.64001 28.09704,30.13488 22.1763,21.26679 46.33171,40.01539 72.56137,56.18073 31.86937,19.64117 65.44399,35.45886 101.35683,45.87201 18.25247,5.2923 36.96591,9.11914 55.62411,12.84051 10.89176,2.17243 22.08789,2.81287 33.13895,4.20685 0.71725,0.0905 1.36478,0.73358 1.85638,1.52558 -132.4483,0.40588 -264.70825,0.40588 -397.188354,0.40588 0,-130.35413 0,-260.70844 10e-7,-391.53134 z"
   id="path1906"
   style="fill:#000000;fill-opacity:0" />
<path
   fill="#000000"
   opacity="1"
   stroke="none"
   d="m 401.47407,9.9484586 c -0.11444,0.6594734 -0.61685,1.7947234 -1.29239,1.9092724 -20.26715,3.436698 -40.86859,5.503858 -60.7456,10.473538 -20.75403,5.188939 -41.04551,12.542848 -61.09436,20.126325 -13.39901,5.06815 -26.16442,11.910351 -38.95778,18.457989 -20.67668,10.582306 -39.85517,23.551342 -58.44295,37.460834 -21.01271,15.724083 -39.87892,33.815863 -57.64809,52.961333 -19.06264,20.53914 -36.005333,42.87938 -50.092251,67.16484 -8.353054,14.4004 -16.188091,29.14865 -23.40287,44.1508 -10.670591,22.1881 -18.851994,45.3857 -24.766042,69.2888 -3.790258,15.31931 -6.932579,30.81009 -9.941147,46.30637 -1.277129,6.57813 -1.43007,13.37152 -2.191222,20.056 -0.118767,1.043 -0.758717,2.02667 -1.557155,2.84085 C 10.942726,270.68804 10.942726,140.42762 10.942726,9.9484536 c 130.020814,0 260.041754,0 390.531344,5e-6 z"
   id="path1908"
   style="fill:#000000;fill-opacity:0" />
<path
   fill="#333333"
   opacity="1"
   stroke="none"
   d="m 497.19169,679.17904 c -27.41629,14.29071 -56.65298,19.25348 -86.75232,19.69873 -64.73178,0.95764 -126.43933,-14.04144 -186.6972,-36.2959 -7.97626,-2.94586 -7.90428,-2.98431 -7.97316,-11.42035 -0.31149,-38.15075 -0.65241,-76.3012 -0.9946,-114.45172 -0.32426,-36.15075 -0.63647,-72.30169 -1.00586,-108.45202 -0.22467,-21.9874 -0.47259,-43.97525 -0.90192,-65.95917 -0.0697,-3.56693 1.09806,-5.15573 4.43312,-6.49808 44.2092,-17.79407 89.71619,-30.88019 136.96506,-37.38309 38.37992,-5.28222 76.71659,-6.35562 114.4852,4.53562 20.63431,5.95029 39.26334,15.63577 54.76956,30.75644 9.10791,8.88141 11.45404,21.5007 6.24597,32.5697 -5.0379,10.7074 -16.03201,17.31775 -28.20935,15.44559 -5.4743,-0.84162 -11.59298,-3.22107 -15.59317,-6.8924 -14.43859,-13.25156 -31.71908,-19.18851 -50.50595,-21.90643 -32.96008,-4.7684 -65.55279,-1.03946 -97.77728,5.63922 -21.3168,4.418 -42.23352,10.74881 -63.38205,16.01169 -4.18826,1.04226 -5.32889,3.07327 -5.27881,7.2594 0.73972,61.80371 1.31738,123.60937 1.9195,185.41473 0.0925,9.49744 0.21649,18.99671 0.11004,28.49268 -0.033,2.94647 0.79431,4.43213 3.79245,5.30707 44.14707,12.88281 88.88541,22.16632 135.14151,21.6593 18.73487,-0.20533 37.42618,-2.13495 54.6192,-10.15216 8.01539,-3.73768 15.64075,-8.93323 22.33695,-14.74268 12.12436,-10.51861 29.19385,-10.82941 40.05884,0.35974 11.00262,11.33093 10.84851,29.42761 -1.40876,40.18634 -8.69714,7.63385 -18.66461,13.82044 -28.39697,20.81775 z"
   id="path1910"
   style="fill:#000000;fill-opacity:1;stroke:#000000;stroke-opacity:0;stroke-width:0;stroke-miterlimit:4;stroke-dasharray:none" />
<path
   fill="#333333"
   opacity="1"
   stroke="none"
   d="m 364.41978,535.48086 c -3.15341,-2.99542 -6.29019,-5.54199 -8.88016,-8.55811 -9.65155,-11.23971 -8.8612,-27.66836 1.63724,-38.04925 10.30502,-10.18955 27.16864,-11.39713 37.5979,-1.28485 17.87805,17.33478 39.96091,23.22751 63.5993,25.32452 40.50855,3.5936 80.00745,-3.25351 119.21399,-12.38583 10.20563,-2.37717 20.22706,-5.53531 30.38971,-8.11154 3.32343,-0.84247 4.49524,-2.4014 4.50806,-5.88001 0.0873,-23.65311 0.41895,-47.30521 0.61481,-70.9581 0.3573,-43.14337 0.66931,-86.28711 1.01721,-129.43054 0.0403,-4.99408 0.0906,-9.99191 0.32556,-14.9791 0.13098,-2.77951 -0.93756,-4.19616 -3.60864,-5.03598 -33.10864,-10.40991 -66.7431,-18.40046 -101.29639,-22.1896 -22.09595,-2.42305 -44.17932,-3.14874 -66.19528,0.86162 -17.18179,3.12979 -32.79239,9.28314 -45.85956,21.5269 -11.01208,10.31811 -28.52045,9.06515 -38.76309,-1.90059 -10.33405,-11.06357 -10.10333,-27.96643 0.70126,-38.77463 20.06516,-20.07184 45.02256,-30.39687 72.3591,-35.67807 32.26902,-6.2341 64.65918,-5.04394 96.98298,-0.55499 47.40057,6.58273 93.09039,19.5591 137.44995,37.4219 3.53466,1.42334 4.68212,3.19161 4.63897,6.92168 -0.55255,47.80161 -0.94427,95.60504 -1.39441,143.40787 -0.20703,21.9866 -0.45715,43.97284 -0.67932,65.95932 -0.28436,28.14767 -0.55804,56.29547 -0.84918,84.44302 -0.0103,0.98737 -0.1582,1.97333 -0.35663,4.31207 -22.96197,7.1103 -46.11542,15.03772 -69.68853,21.41309 -41.95972,11.34796 -84.65543,18.11469 -128.32419,16.61603 -28.21351,-0.9682 -55.73444,-5.50067 -81.05552,-18.73676 -8.35202,-4.36578 -15.90121,-10.26739 -24.08514,-15.70007 z"
   id="path1912"
   style="fill:#000000;fill-opacity:1;stroke:none;stroke-opacity:0;stroke-width:0;stroke-miterlimit:4;stroke-dasharray:none" />
<ellipse
   style="fill:none;fill-opacity:1;stroke:#000000;stroke-width:43.7613;stroke-miterlimit:4;stroke-dasharray:none;stroke-opacity:1"
   id="path7565"
   cx="446.44116"
   cy="443.62894"
   rx="414.23978"
   ry="411.42752" /></svg>
